<svg width="236" height="43" fill="none" xmlns="http://www.w3.org/2000/svg"><mask id="a" maskUnits="userSpaceOnUse" x="26" y="1" width="40" height="35"><path d="M41.405 27.57L46.18 36 66 1h-9.544L46.18 19.148l-4.774 8.423zm1.547-14.12l-4.772 8.426L26.357 1h9.544l7.051 12.45z" fill="#121212"/></mask><g mask="url(#a)" fill="#121212"><path d="M41.405 27.57L46.18 36 66 1h-9.544L46.18 19.148l-4.774 8.423zm1.547-14.12l-4.772 8.426L26.357 1h9.544l7.051 12.45z"/><path d="M70.99-5.107L47.605 36.287h-11.58l11.58-19.93L59.731-5.107h11.258z"/></g><mask id="b" maskUnits="userSpaceOnUse" x="0" y="1" width="40" height="35"><path d="M27.82 15.122L39.642 36h-9.544l-7.052-12.452 4.772-8.426zm-3.226-5.694L19.821 1 0 36h9.544L19.82 17.852l.002.002 4.771-8.426z" fill="#121212"/></mask><g mask="url(#b)"><path d="M27.82 15.122L39.642 36h-9.544l-7.052-12.452 4.772-8.426zm-3.226-5.694L19.821 1 0 36h9.544L19.82 17.852l.002.002 4.771-8.426z" fill="#121212"/><path d="M27.286 9.482c-.27.815-12.439 23.638-18.49 34.948-8.965 3.054-26.626 7.872-25.55 2.715 1.345-6.447-4.034-33.252 3.698-37.663" stroke="#fff" stroke-width="1.028"/></g><path d="M85.54 16h2.268l1.296-3.042h5.958L96.34 16h2.34L93.136 3.31h-2.052L85.54 16zm4.374-5.004l2.16-5.04 2.178 5.04h-4.338zm10.675 7.884h2.178v-4.356c.666.882 1.656 1.674 3.222 1.674 2.268 0 4.428-1.782 4.428-4.932 0-3.186-2.178-4.968-4.428-4.968-1.53 0-2.52.792-3.222 1.782V6.496h-2.178V18.88zm4.896-4.572c-1.476 0-2.772-1.206-2.772-3.042 0-1.854 1.296-3.078 2.772-3.078 1.476 0 2.718 1.206 2.718 3.042 0 1.908-1.224 3.078-2.718 3.078zM114.681 16h2.196V8.368h3.06V6.496h-8.316v1.872h3.06V16zm7.236 0h5.832c2.808 0 4.662-1.206 4.662-3.456 0-1.746-1.026-2.592-2.502-3.096.936-.486 1.8-1.296 1.8-2.808 0-.882-.288-1.566-.846-2.124-.72-.72-1.854-1.116-3.294-1.116h-5.652V16zm2.178-7.29V5.362h3.186c1.422 0 2.214.612 2.214 1.602 0 1.188-.954 1.746-2.376 1.746h-3.024zm0 5.328v-3.456h3.51c1.746 0 2.592.63 2.592 1.692 0 1.17-.918 1.764-2.43 1.764h-3.672zm15.078 2.178c2.934 0 5.094-2.25 5.094-4.95 0-2.754-2.142-4.968-5.058-4.968s-5.076 2.25-5.076 4.968c0 2.736 2.142 4.95 5.04 4.95zm.036-1.89c-1.692 0-2.898-1.404-2.898-3.06 0-1.692 1.116-3.06 2.862-3.06 1.71 0 2.916 1.386 2.916 3.06 0 1.674-1.116 3.06-2.88 3.06zm7.204 1.782c2.106 0 3.402-.846 3.402-7.74h2.97V16h2.178V6.496h-7.182c0 7.236-.756 7.776-1.854 7.776-.144 0-.486-.036-.63-.072l-.162 1.782c.324.054.936.126 1.278.126zM157.7 16h2.16v-2.286l1.548-1.638 2.88 3.924h2.574l-3.996-5.508 3.69-3.996H164l-4.14 4.554V6.496h-2.16V16zm15.188.216c2.934 0 5.094-2.25 5.094-4.95 0-2.754-2.142-4.968-5.058-4.968s-5.076 2.25-5.076 4.968c0 2.736 2.142 4.95 5.04 4.95zm.036-1.89c-1.692 0-2.898-1.404-2.898-3.06 0-1.692 1.116-3.06 2.862-3.06 1.71 0 2.916 1.386 2.916 3.06 0 1.674-1.116 3.06-2.88 3.06zM180.2 16h4.932c2.16 0 3.51-.972 3.51-2.574 0-1.35-.81-2.052-1.962-2.376.81-.36 1.53-.972 1.53-2.178 0-1.458-1.242-2.376-3.132-2.376H180.2V16zm2.142-1.728v-2.376h2.358c1.17 0 1.728.468 1.728 1.152 0 .738-.558 1.224-1.62 1.224h-2.466zm0-3.852V8.17h2.268c.972 0 1.386.468 1.386 1.08 0 .684-.504 1.17-1.422 1.17h-2.232zM85.15 37.935h.945l.21-1.935h6.27v1.935h.96l.18-2.955h-1.17v-6.735h-5.52v1.35c0 2.61-.405 4.23-1.035 5.385h-.84v2.955zm2.07-2.955c.54-1.005.915-2.715.915-4.635v-1.08h3.255v5.715h-4.17zM94.999 36h1.11l4.62-6.135V36h1.155v-7.755h-1.125l-4.605 6.135v-6.135h-1.155V36zm8.023 1.935h.945l.21-1.935h6.27v1.935h.96l.18-2.955h-1.17v-6.735h-5.52v1.35c0 2.61-.405 4.23-1.035 5.385h-.84v2.955zm2.07-2.955c.54-1.005.915-2.715.915-4.635v-1.08h3.255v5.715h-4.17zM111.88 36h1.35l2.58-3.615 1.575 1.725V36h1.155v-1.89l1.575-1.725 2.58 3.615h1.35l-3.18-4.44 3.015-3.315h-1.395l-3.945 4.5v-4.5h-1.155v4.5l-3.945-4.5h-1.395l3.015 3.315-3.18 4.44zm13.449 0h1.11l4.62-6.135V36h1.155v-7.755h-1.125l-4.605 6.135v-6.135h-1.155V36zm11.038 0h1.17v-6.735h2.775v-1.02h-6.72v1.02h2.775V36zm7.635.165c1.365 0 2.25-.63 2.79-1.32V36h1.14v-4.74c0-.99-.27-1.74-.81-2.28-.555-.555-1.41-.855-2.505-.855-1.14 0-1.965.27-2.82.66l.345.945c.72-.33 1.44-.555 2.355-.555 1.455 0 2.295.72 2.295 2.1v.24a8.125 8.125 0 00-2.37-.33c-1.965 0-3.315.87-3.315 2.535 0 1.62 1.44 2.445 2.895 2.445zm.225-.93c-1.05 0-1.95-.57-1.95-1.545 0-.96.825-1.59 2.265-1.59.945 0 1.695.165 2.265.33v.72c0 1.23-1.155 2.085-2.58 2.085zm5.477.885c1.47 0 2.565-.63 2.565-6.675v-.18h3.24V36h1.155v-7.755h-5.49v.645c0 5.82-.78 6.225-1.71 6.225-.135 0-.405-.06-.555-.105l-.135.99c.24.06.675.12.93.12zm15.752.045c1.365 0 2.25-.63 2.79-1.32V36h1.14v-4.74c0-.99-.27-1.74-.81-2.28-.555-.555-1.41-.855-2.505-.855-1.14 0-1.965.27-2.82.66l.345.945c.72-.33 1.44-.555 2.355-.555 1.455 0 2.295.72 2.295 2.1v.24a8.125 8.125 0 00-2.37-.33c-1.965 0-3.315.87-3.315 2.535 0 1.62 1.44 2.445 2.895 2.445zm.225-.93c-1.05 0-1.95-.57-1.95-1.545 0-.96.825-1.59 2.265-1.59.945 0 1.695.165 2.265.33v.72c0 1.23-1.155 2.085-2.58 2.085zm5.851.765h1.155v-6.735h4.11v-1.02h-5.265V36zm10.034.18c1.47 0 2.415-.585 3.195-1.455l-.72-.645c-.63.66-1.38 1.095-2.445 1.095-1.365 0-2.565-.945-2.73-2.58h6.15c.015-.18.015-.3.015-.405 0-2.28-1.32-4.11-3.615-4.11-2.145 0-3.72 1.8-3.72 4.05 0 2.415 1.74 4.05 3.87 4.05zm-2.7-4.515c.165-1.5 1.185-2.61 2.52-2.61 1.53 0 2.34 1.2 2.475 2.61h-4.995zM186.753 36h1.155v-3.39h4.47V36h1.155v-7.755h-1.155v3.345h-4.47v-3.345h-1.155V36zm10.935 0h1.17v-6.735h2.775v-1.02h-6.72v1.02h2.775V36zm8.82.18c1.455 0 2.385-.63 3.165-1.5l-.765-.705c-.615.66-1.35 1.17-2.34 1.17-1.62 0-2.85-1.335-2.85-3.015 0-1.695 1.2-3.03 2.775-3.03 1.05 0 1.77.495 2.385 1.14l.735-.78c-.72-.765-1.635-1.38-3.105-1.38-2.265 0-3.975 1.86-3.975 4.05 0 2.205 1.71 4.05 3.975 4.05zm6.649-.18h1.17v-6.735h2.775v-1.02h-6.72v1.02h2.775V36zm5.325 0h3.885c1.71 0 2.82-.81 2.82-2.115 0-1.095-.78-1.665-1.71-1.92.645-.27 1.29-.765 1.29-1.785 0-1.17-.99-1.935-2.535-1.935h-3.75V36zm1.155-.99v-2.505h2.43c1.26 0 1.935.45 1.935 1.2 0 .81-.675 1.305-1.785 1.305h-2.58zm0-3.435v-2.34h2.415c1.005 0 1.545.45 1.545 1.095 0 .81-.645 1.245-1.575 1.245h-2.385zm10.874 4.605c2.34 0 4.065-1.86 4.065-4.05 0-2.22-1.71-4.05-4.035-4.05-2.34 0-4.05 1.86-4.05 4.05 0 2.22 1.695 4.05 4.02 4.05zm.03-1.035c-1.635 0-2.865-1.35-2.865-3.015s1.155-3.03 2.835-3.03c1.635 0 2.88 1.365 2.88 3.03 0 1.665-1.17 3.015-2.85 3.015z" fill="#121212"/></svg>